<svg width="24" height="24" viewBox="0 0 24 24" fill="none" xmlns="http://www.w3.org/2000/svg">
<circle cx="12" cy="12" r="11.5" fill="#4F2694" stroke="white"/>
<path d="M11.6 19C11.1733 19 10.7765 18.8902 10.4096 18.6706C10.0427 18.451 9.74613 18.149 9.52 17.7647C9.37333 17.4902 9.36987 17.2157 9.5096 16.9412C9.64933 16.6667 9.86613 16.5294 10.16 16.5294C10.3333 16.5294 10.4867 16.5843 10.62 16.6941C10.7533 16.8039 10.8733 16.9275 10.98 17.0647C11.0467 17.1608 11.1368 17.233 11.2504 17.2813C11.364 17.3296 11.4805 17.3535 11.6 17.3529C11.8267 17.3529 12.0168 17.2739 12.1704 17.1158C12.324 16.9576 12.4005 16.7622 12.4 16.5294C12.4 16.2961 12.3232 16.1004 12.1696 15.9422C12.016 15.7841 11.8261 15.7053 11.6 15.7059H4.8C4.57334 15.7059 4.3832 15.6268 4.2296 15.4687C4.076 15.3106 3.99947 15.1151 4 14.8824C4 14.649 4.0768 14.4533 4.2304 14.2952C4.384 14.1371 4.57387 14.0583 4.8 14.0588H11.6C12.2667 14.0588 12.8333 14.299 13.3 14.7794C13.7667 15.2598 14 15.8431 14 16.5294C14 17.2157 13.7667 17.799 13.3 18.2794C12.8333 18.7598 12.2667 19 11.6 19ZM4.8 10.7647C4.57334 10.7647 4.3832 10.6856 4.2296 10.5275C4.076 10.3694 3.99947 10.174 4 9.94118C4 9.70784 4.0768 9.51212 4.2304 9.354C4.384 9.19588 4.57387 9.1171 4.8 9.11765H14.8C15.1333 9.11765 15.4168 8.99741 15.6504 8.75694C15.884 8.51647 16.0005 8.22494 16 7.88235C16 7.53922 15.8832 7.24741 15.6496 7.00694C15.416 6.76647 15.1328 6.64651 14.8 6.64706C14.5867 6.64706 14.3867 6.69867 14.2 6.80188C14.0133 6.9051 13.8667 7.05251 13.76 7.24412C13.6667 7.40882 13.5533 7.55651 13.42 7.68718C13.2867 7.81784 13.1267 7.8829 12.94 7.88235C12.6733 7.88235 12.4565 7.77941 12.2896 7.57353C12.1227 7.36765 12.0795 7.14804 12.16 6.91471C12.3467 6.33824 12.6835 5.87486 13.1704 5.52459C13.6573 5.17432 14.2005 4.99945 14.8 5C15.5733 5 16.2333 5.28137 16.78 5.84412C17.3267 6.40686 17.6 7.08628 17.6 7.88235C17.6 8.67843 17.3267 9.35784 16.78 9.92059C16.2333 10.4833 15.5733 10.7647 14.8 10.7647H4.8ZM18.36 17.1059C18.0933 17.2294 17.8333 17.2121 17.58 17.054C17.3267 16.8959 17.2 16.6661 17.2 16.3647C17.2 16.1725 17.2635 16.0111 17.3904 15.8805C17.5173 15.7498 17.6605 15.6367 17.82 15.5412C18.0067 15.4314 18.1501 15.2804 18.2504 15.0882C18.3507 14.8961 18.4005 14.6902 18.4 14.4706C18.4 14.1275 18.2835 13.8356 18.0504 13.5952C17.8173 13.3547 17.5339 13.2347 17.2 13.2353H4.8C4.57334 13.2353 4.3832 13.1562 4.2296 12.9981C4.076 12.84 3.99947 12.6445 4 12.4118C4 12.1784 4.0768 11.9827 4.2304 11.8246C4.384 11.6665 4.57387 11.5877 4.8 11.5882H17.2C17.9733 11.5882 18.6333 11.8696 19.18 12.4324C19.7267 12.9951 20 13.6745 20 14.4706C20 15.0471 19.8533 15.5722 19.56 16.046C19.2667 16.5198 18.8667 16.8731 18.36 17.1059Z" fill="white"/>
</svg>
